<svg xmlns="http://www.w3.org/2000/svg" xmlns:xlink="http://www.w3.org/1999/xlink" width="2250" zoomAndPan="magnify" viewBox="0 0 1687.5 1057.499973" height="1410" preserveAspectRatio="xMidYMid meet" version="1.0"><defs><clipPath id="2179f69d24"><path d="M 0.148438 0 L 1686.851562 0 L 1686.851562 1057 L 0.148438 1057 Z M 0.148438 0 " clip-rule="nonzero"/></clipPath><clipPath id="e55c1b584b"><path d="M 1412.613281 0 L 1686.851562 0 L 1686.851562 274.503906 L 1412.613281 274.503906 Z M 1412.613281 0 " clip-rule="nonzero"/></clipPath><clipPath id="76bbc29efb"><path d="M 0.613281 0 L 274.851562 0 L 274.851562 274.234375 L 0.613281 274.234375 Z M 0.613281 0 " clip-rule="nonzero"/></clipPath><clipPath id="f723937925"><path d="M 237 63 L 274.851562 63 L 274.851562 99 L 237 99 Z M 237 63 " clip-rule="nonzero"/></clipPath><clipPath id="e88b413cf8"><path d="M 237 0 L 274.851562 0 L 274.851562 44 L 237 44 Z M 237 0 " clip-rule="nonzero"/></clipPath><clipPath id="40075c7b89"><path d="M 175 113 L 274.851562 113 L 274.851562 149 L 175 149 Z M 175 113 " clip-rule="nonzero"/></clipPath><clipPath id="f5cedd7654"><path d="M 175 0 L 219 0 L 219 99 L 175 99 Z M 175 0 " clip-rule="nonzero"/></clipPath><clipPath id="4a070db463"><path d="M 237 162 L 274.851562 162 L 274.851562 222 L 237 222 Z M 237 162 " clip-rule="nonzero"/></clipPath><clipPath id="f0acc7d93c"><path d="M 90 0 L 157 0 L 157 29 L 90 29 Z M 90 0 " clip-rule="nonzero"/></clipPath><clipPath id="ec35f90bb6"><rect x="0" width="275" y="0" height="275"/></clipPath><clipPath id="7d2173b0a8"><path d="M 0.148438 789.003906 L 279.746094 789.003906 L 279.746094 1057 L 0.148438 1057 Z M 0.148438 789.003906 " clip-rule="nonzero"/></clipPath><clipPath id="f848404b5c"><path d="M 0.148438 957 L 52 957 L 52 992 L 0.148438 992 Z M 0.148438 957 " clip-rule="nonzero"/></clipPath><clipPath id="7596a6e952"><path d="M 15 1011 L 52 1011 L 52 1057 L 15 1057 Z M 15 1011 " clip-rule="nonzero"/></clipPath><clipPath id="e3d45bc02e"><path d="M 70 957 L 111 957 L 111 1057 L 70 1057 Z M 70 957 " clip-rule="nonzero"/></clipPath><clipPath id="f6d258a6fb"><path d="M 129 1025 L 194 1025 L 194 1057 L 129 1057 Z M 129 1025 " clip-rule="nonzero"/></clipPath></defs><g clip-path="url(#2179f69d24)"><path fill="#ffffff" d="M 0.148438 0 L 1686.851562 0 L 1686.851562 1057 L 0.148438 1057 Z M 0.148438 0 " fill-opacity="1" fill-rule="nonzero"/><path fill="#00004d" d="M 0.148438 0 L 1686.851562 0 L 1686.851562 1057 L 0.148438 1057 Z M 0.148438 0 " fill-opacity="1" fill-rule="nonzero"/></g><g clip-path="url(#e55c1b584b)"><g transform="matrix(1, 0, 0, 1, 1412, 0)"><g clip-path="url(#ec35f90bb6)"><g clip-path="url(#76bbc29efb)"><path fill="#3b367c" d="M 298.515625 -27.796875 L 0.609375 -27.796875 L 0.609375 -62.84375 L 337.683594 -62.84375 L 337.683594 274.234375 L 298.515625 274.234375 Z M 298.515625 -27.796875 " fill-opacity="1" fill-rule="evenodd"/></g><g clip-path="url(#f723937925)"><path fill="#eb5436" d="M 298.515625 98.996094 L 237.695312 98.996094 L 237.695312 63.945312 L 298.515625 63.945312 Z M 298.515625 98.996094 " fill-opacity="1" fill-rule="evenodd"/></g><g clip-path="url(#e88b413cf8)"><path fill="#f5f5f5" d="M 274.804688 43.332031 L 237.695312 43.332031 L 237.695312 -27.796875 L 274.804688 -27.796875 Z M 274.804688 43.332031 " fill-opacity="1" fill-rule="evenodd"/></g><g clip-path="url(#40075c7b89)"><path fill="#f5f5f5" d="M 274.804688 148.472656 L 175.847656 148.472656 L 175.847656 113.425781 L 274.804688 113.425781 Z M 274.804688 148.472656 " fill-opacity="1" fill-rule="evenodd"/></g><g clip-path="url(#f5cedd7654)"><path fill="#3b367c" d="M 218.109375 98.996094 L 175.847656 98.996094 L 175.847656 -9.753906 L 218.109375 -9.753906 Z M 218.109375 98.996094 " fill-opacity="1" fill-rule="evenodd"/></g><g clip-path="url(#4a070db463)"><path fill="#eb5436" d="M 274.804688 221.660156 L 237.695312 221.660156 L 237.695312 162.90625 L 274.804688 162.90625 Z M 274.804688 221.660156 " fill-opacity="1" fill-rule="evenodd"/></g><g clip-path="url(#f0acc7d93c)"><path fill="#eb5436" d="M 156.261719 28.898438 L 90.289062 28.898438 L 90.289062 -9.753906 L 156.261719 -9.753906 Z M 156.261719 28.898438 " fill-opacity="1" fill-rule="evenodd"/></g></g></g></g><g clip-path="url(#7d2173b0a8)"><path fill="#3b367c" d="M -7.128906 1079.847656 L 279.742188 1079.847656 L 279.742188 1113.59375 L -44.847656 1113.59375 L -44.847656 789.003906 L -7.128906 789.003906 Z M -7.128906 1079.847656 " fill-opacity="1" fill-rule="evenodd"/></g><g clip-path="url(#f848404b5c)"><path fill="#eb5436" d="M -7.128906 957.75 L 51.4375 957.75 L 51.4375 991.5 L -7.128906 991.5 Z M -7.128906 957.75 " fill-opacity="1" fill-rule="evenodd"/></g><g clip-path="url(#7596a6e952)"><path fill="#f5f5f5" d="M 15.703125 1011.355469 L 51.4375 1011.355469 L 51.4375 1079.847656 L 15.703125 1079.847656 Z M 15.703125 1011.355469 " fill-opacity="1" fill-rule="evenodd"/></g><path fill="#f5f5f5" d="M 15.703125 910.105469 L 110.996094 910.105469 L 110.996094 943.855469 L 15.703125 943.855469 Z M 15.703125 910.105469 " fill-opacity="1" fill-rule="evenodd"/><g clip-path="url(#e3d45bc02e)"><path fill="#3b367c" d="M 70.296875 957.75 L 110.992188 957.75 L 110.992188 1062.472656 L 70.296875 1062.472656 Z M 70.296875 957.75 " fill-opacity="1" fill-rule="evenodd"/></g><path fill="#eb5436" d="M 15.703125 839.628906 L 51.4375 839.628906 L 51.4375 896.210938 L 15.703125 896.210938 Z M 15.703125 839.628906 " fill-opacity="1" fill-rule="evenodd"/><g clip-path="url(#f6d258a6fb)"><path fill="#eb5436" d="M 129.851562 1025.25 L 193.382812 1025.25 L 193.382812 1062.472656 L 129.851562 1062.472656 Z M 129.851562 1025.25 " fill-opacity="1" fill-rule="evenodd"/></g></svg>