<svg xmlns="http://www.w3.org/2000/svg" xmlns:xlink="http://www.w3.org/1999/xlink" width="1410" zoomAndPan="magnify" viewBox="0 0 1057.5 1687.499993" height="2250" preserveAspectRatio="xMidYMid meet" version="1.0"><defs><clipPath id="a522d52cc0"><path d="M 0 0.148438 L 1057 0.148438 L 1057 1686.851562 L 0 1686.851562 Z M 0 0.148438 " clip-rule="nonzero"/></clipPath><clipPath id="6e7ec8de55"><path d="M 604.203125 0.148438 L 1057 0.148438 L 1057 449.988281 L 604.203125 449.988281 Z M 604.203125 0.148438 " clip-rule="nonzero"/></clipPath><clipPath id="c35e27c24e"><path d="M 0.203125 0.148438 L 453 0.148438 L 453 449.730469 L 0.203125 449.730469 Z M 0.203125 0.148438 " clip-rule="nonzero"/></clipPath><clipPath id="8bcc47e351"><path d="M 364 126 L 453 126 L 453 181 L 364 181 Z M 364 126 " clip-rule="nonzero"/></clipPath><clipPath id="2da6d5a228"><path d="M 364 0.148438 L 422 0.148438 L 422 95 L 364 95 Z M 364 0.148438 " clip-rule="nonzero"/></clipPath><clipPath id="b92e890a6f"><rect x="0" width="453" y="0" height="450"/></clipPath><clipPath id="fbb190f5d8"><path d="M 0 1237.265625 L 453 1237.265625 L 453 1686.851562 L 0 1686.851562 Z M 0 1237.265625 " clip-rule="nonzero"/></clipPath><clipPath id="083f81b010"><path d="M 31 1592 L 89 1592 L 89 1686.851562 L 31 1686.851562 Z M 31 1592 " clip-rule="nonzero"/></clipPath></defs><g clip-path="url(#a522d52cc0)"><path fill="#ffffff" d="M 0 0.148438 L 1057 0.148438 L 1057 1686.851562 L 0 1686.851562 Z M 0 0.148438 " fill-opacity="1" fill-rule="nonzero"/><path fill="#00004d" d="M 0 0.148438 L 1057 0.148438 L 1057 1686.851562 L 0 1686.851562 Z M 0 0.148438 " fill-opacity="1" fill-rule="nonzero"/></g><g clip-path="url(#6e7ec8de55)"><g transform="matrix(1, 0, 0, 1, 604, 0.000000000000207195)"><g clip-path="url(#b92e890a6f)"><g clip-path="url(#c35e27c24e)"><path fill="#3b367c" d="M 458.445312 -14.863281 L 0.195312 -14.863281 L 0.195312 -68.777344 L 518.699219 -68.777344 L 518.699219 449.730469 L 458.445312 449.730469 Z M 458.445312 -14.863281 " fill-opacity="1" fill-rule="evenodd"/></g><g clip-path="url(#8bcc47e351)"><path fill="#eb5436" d="M 458.445312 180.171875 L 364.890625 180.171875 L 364.890625 126.257812 L 458.445312 126.257812 Z M 458.445312 180.171875 " fill-opacity="1" fill-rule="evenodd"/></g><g clip-path="url(#2da6d5a228)"><path fill="#f5f5f5" d="M 421.972656 94.546875 L 364.890625 94.546875 L 364.890625 -14.863281 L 421.972656 -14.863281 Z M 421.972656 94.546875 " fill-opacity="1" fill-rule="evenodd"/></g><path fill="#f5f5f5" d="M 421.972656 256.28125 L 269.75 256.28125 L 269.75 202.371094 L 421.972656 202.371094 Z M 421.972656 256.28125 " fill-opacity="1" fill-rule="evenodd"/><path fill="#3b367c" d="M 334.765625 180.171875 L 269.753906 180.171875 L 269.753906 12.886719 L 334.765625 12.886719 Z M 334.765625 180.171875 " fill-opacity="1" fill-rule="evenodd"/><path fill="#eb5436" d="M 421.972656 368.863281 L 364.890625 368.863281 L 364.890625 278.480469 L 421.972656 278.480469 Z M 421.972656 368.863281 " fill-opacity="1" fill-rule="evenodd"/><path fill="#eb5436" d="M 239.625 72.347656 L 138.144531 72.347656 L 138.144531 12.886719 L 239.625 12.886719 Z M 239.625 72.347656 " fill-opacity="1" fill-rule="evenodd"/></g></g></g><g clip-path="url(#fbb190f5d8)"><path fill="#3b367c" d="M -5.449219 1701.859375 L 452.804688 1701.859375 L 452.804688 1755.773438 L -65.703125 1755.773438 L -65.703125 1237.265625 L -5.449219 1237.265625 Z M -5.449219 1701.859375 " fill-opacity="1" fill-rule="evenodd"/></g><path fill="#eb5436" d="M -5.449219 1506.824219 L 88.105469 1506.824219 L 88.105469 1560.738281 L -5.449219 1560.738281 Z M -5.449219 1506.824219 " fill-opacity="1" fill-rule="evenodd"/><g clip-path="url(#083f81b010)"><path fill="#f5f5f5" d="M 31.023438 1592.449219 L 88.105469 1592.449219 L 88.105469 1701.859375 L 31.023438 1701.859375 Z M 31.023438 1592.449219 " fill-opacity="1" fill-rule="evenodd"/></g><path fill="#f5f5f5" d="M 31.023438 1430.714844 L 183.246094 1430.714844 L 183.246094 1484.625 L 31.023438 1484.625 Z M 31.023438 1430.714844 " fill-opacity="1" fill-rule="evenodd"/><path fill="#3b367c" d="M 118.230469 1506.824219 L 183.242188 1506.824219 L 183.242188 1674.109375 L 118.230469 1674.109375 Z M 118.230469 1506.824219 " fill-opacity="1" fill-rule="evenodd"/><path fill="#eb5436" d="M 31.023438 1318.132812 L 88.105469 1318.132812 L 88.105469 1408.515625 L 31.023438 1408.515625 Z M 31.023438 1318.132812 " fill-opacity="1" fill-rule="evenodd"/><path fill="#eb5436" d="M 213.371094 1614.648438 L 314.851562 1614.648438 L 314.851562 1674.109375 L 213.371094 1674.109375 Z M 213.371094 1614.648438 " fill-opacity="1" fill-rule="evenodd"/></svg>